<?xml version="1.0" encoding="UTF-8"?>
<svg id="Layer_1" data-name="Layer 1" xmlns="http://www.w3.org/2000/svg" viewBox="0 0 325.06 167.41">
  <defs>
    <style>
      .cls-1 {
        letter-spacing: .3em;
      }

      .cls-2 {
        letter-spacing: .28em;
      }

      .cls-3 {
        fill: #6d6e71;
        font-family: BeVietnamPro-Bold, 'Be Vietnam Pro';
        font-size: 21.6px;
        font-weight: 700;
      }

      .cls-4 {
        letter-spacing: .26em;
      }

      .cls-5 {
        fill: #ef4538;
        stroke-width: 0px;
      }

      .cls-6 {
        letter-spacing: .3em;
      }
    </style>
  </defs>
  <g>
    <path class="cls-5" d="M44.71,126.6v-56.41h21.19c4.42,0,8.11.9,11.05,2.71,2.95,1.8,5.16,4.12,6.63,6.94,1.47,2.82,2.21,5.78,2.21,8.88s-.74,6.07-2.21,8.92c-1.47,2.85-3.69,5.17-6.63,6.98-2.95,1.8-6.63,2.71-11.05,2.71h-12.27v19.29h-8.92ZM65.9,77.96h-12.27v21.57h12.27c2.44,0,4.47-.52,6.1-1.56,1.63-1.04,2.85-2.39,3.66-4.04.81-1.65,1.22-3.37,1.22-5.15s-.41-3.57-1.22-5.22c-.81-1.65-2.03-3-3.66-4.04-1.63-1.04-3.66-1.56-6.1-1.56Z"/>
    <path class="cls-5" d="M93.96,126.6v-40.4h8.69v5.34h.3c.76-1.57,1.97-2.99,3.62-4.23,1.65-1.24,4.05-1.87,7.2-1.87.96,0,2.13.1,3.51.3v8.39c-1.52-.2-2.77-.3-3.74-.3-3.56,0-6.26,1-8.12,3.01-1.86,2.01-2.78,5.25-2.78,9.72v20.05h-8.69Z"/>
    <path class="cls-5" d="M131.54,79.26c-1.58,0-2.87-.53-3.89-1.6-1.02-1.07-1.52-2.31-1.52-3.74s.51-2.73,1.52-3.77c1.02-1.04,2.31-1.56,3.89-1.56s2.88.52,3.93,1.56c1.04,1.04,1.56,2.3,1.56,3.77s-.52,2.73-1.56,3.77c-1.04,1.04-2.35,1.56-3.93,1.56ZM127.27,126.6v-40.4h8.69v40.4h-8.69Z"/>
    <path class="cls-5" d="M147.09,126.6v-40.4h8.69v5.87h.46c.35-.71.96-1.59,1.83-2.63.86-1.04,2.07-1.97,3.62-2.78,1.55-.81,3.52-1.22,5.91-1.22,3,0,5.51.69,7.55,2.06,2.03,1.37,3.57,3.2,4.61,5.49,1.04,2.29,1.56,4.8,1.56,7.55v26.07h-8.69v-25.16c0-2.44-.67-4.5-2.02-6.18-1.35-1.68-3.34-2.52-5.98-2.52-2.08,0-3.77.52-5.07,1.56-1.3,1.04-2.25,2.39-2.86,4.04-.61,1.65-.91,3.42-.91,5.3v22.95h-8.69Z"/>
    <path class="cls-5" d="M207.85,127.36c-3.2,0-5.77-.58-7.7-1.75-1.93-1.17-3.32-2.73-4.15-4.69-.84-1.96-1.26-4.08-1.26-6.37v-21.35h-7.09v-7.01h7.09v-10.06h8.69v10.06h9.45v7.01h-9.45v21.19c0,3.81,2.11,5.72,6.33,5.72,1.07,0,2.52-.15,4.35-.46v7.09c-2.49.41-4.57.61-6.25.61Z"/>
    <path class="cls-5" d="M239.26,85.43c2.54,0,4.66.41,6.37,1.22,1.7.81,3.06,1.75,4.08,2.82,1.02,1.07,1.75,1.98,2.21,2.74h.46v-6.02h8.69v40.4h-8.69v-6.02h-.46c-.46.76-1.19,1.68-2.21,2.74-1.02,1.07-2.38,2.01-4.08,2.82-1.7.81-3.82,1.22-6.37,1.22-3.05,0-5.71-.6-7.97-1.79-2.26-1.19-4.15-2.79-5.68-4.8-1.52-2.01-2.66-4.26-3.39-6.75-.74-2.49-1.11-5.03-1.11-7.62s.37-5.13,1.11-7.62c.74-2.49,1.87-4.74,3.39-6.75,1.52-2.01,3.42-3.61,5.68-4.8,2.26-1.19,4.92-1.79,7.97-1.79ZM241.17,92.68c-2.49,0-4.57.67-6.25,2.02-1.68,1.35-2.94,3.06-3.77,5.15-.84,2.08-1.26,4.27-1.26,6.56s.42,4.47,1.26,6.56c.84,2.08,2.1,3.8,3.77,5.15,1.68,1.35,3.76,2.02,6.25,2.02s4.56-.67,6.21-2.02c1.65-1.35,2.9-3.06,3.74-5.15.84-2.08,1.26-4.27,1.26-6.56s-.42-4.47-1.26-6.56c-.84-2.08-2.08-3.8-3.74-5.15-1.65-1.35-3.72-2.02-6.21-2.02Z"/>
    <path class="cls-5" d="M276.61,79.26c-1.58,0-2.87-.53-3.89-1.6-1.02-1.07-1.52-2.31-1.52-3.74s.51-2.73,1.52-3.77c1.02-1.04,2.31-1.56,3.89-1.56s2.88.52,3.93,1.56c1.04,1.04,1.56,2.3,1.56,3.77s-.52,2.73-1.56,3.77c-1.04,1.04-2.35,1.56-3.93,1.56ZM272.35,126.6v-40.4h8.69v40.4h-8.69Z"/>
    <path class="cls-5" d="M292.17,126.6v-40.4h8.69v5.34h.3c.76-1.57,1.97-2.99,3.62-4.23,1.65-1.24,4.05-1.87,7.2-1.87.96,0,2.13.1,3.51.3v8.39c-1.52-.2-2.77-.3-3.74-.3-3.56,0-6.26,1-8.12,3.01-1.86,2.01-2.78,5.25-2.78,9.72v20.05h-8.69Z"/>
  </g>
  <text class="cls-3" transform="translate(44.71 152.17)"><tspan class="cls-6" x="0" y="0">A</tspan><tspan class="cls-2" x="23.09" y="0">D</tspan><tspan class="cls-1" x="45.36" y="0">VE</tspan><tspan class="cls-4" x="88.28" y="0">R</tspan><tspan class="cls-6" x="109.37" y="0">TISING</tspan></text>
  <path class="cls-5" d="M9.57,90.49v-7.73c0-6.95,5.64-12.59,12.59-12.59h10.29s2.3,0,2.3,0h0c.98,0,1.59,1.06,1.1,1.92-.7,1.23-1.1,2.65-1.1,4.17v4.97s0,9.27,0,9.27c0,6.95-5.64,12.59-12.59,12.59h0c-6.95,0-12.59-5.64-12.59-12.59Z"/>
  <path class="cls-5" d="M53.06,17.38c10.47,0,18.98,8.51,18.98,18.98s-8.51,18.98-18.98,18.98h-30.3c-1.73,0-3.45.17-5.13.52v-19.5c0-10.47,8.51-18.98,18.98-18.98h16.45M53.06,9.56h-16.45c-14.8,0-26.8,12-26.8,26.8v26.8h0c0,1.59,1.3,2.71,2.72,2.71.45,0,.92-.11,1.36-.37,2.62-1.49,5.64-2.34,8.87-2.34h30.3c14.8,0,26.8-12,26.8-26.8h0c0-14.8-12-26.8-26.8-26.8h0Z"/>
</svg>